<svg xmlns="http://www.w3.org/2000/svg" viewBox="0 0 71 73" width="71" height="73"><title>Icon-svg</title><style>		.s0 { fill: #ffc000 } 		.s1 { fill: #141519 } 		.s2 { fill: #73bfb8 } 		.s3 { fill: #ffffff } 		.s4 { fill: #e23129 } 		.s5 { opacity: .7;fill: #fefefe } 		.s6 { fill: #f59121 } 		.s7 { fill: #feaa2c;stroke: #f59121 } 	</style><path id="Layer" class="s0" d="m53.5 50.6h-26.5v-37.4h26.5z"></path><path id="Layer" class="s1" d="m48.9 24.6h-17.2v-0.4h17.2z"></path><path id="Layer" class="s1" d="m48.9 29.6h-17.2v-0.4h17.2z"></path><path id="Layer" class="s1" d="m48.9 19.6h-17.2v-0.3h17.2z"></path><path id="Layer" class="s1" d="m48.9 34.6h-17.2v-0.4h17.2z"></path><path id="Layer" class="s1" d="m48.9 39.6h-17.2v-0.4h17.2z"></path><path id="Layer" class="s1" d="m48.9 44.6h-17.2v-0.4h17.2z"></path><path id="Layer" class="s2" d="m39 47.2l-29.1 6.8-9.5-41.1 29.1-6.8z"></path><path id="Layer" class="s3" d="m15.5 24.1v-0.4l12-2.7 0.1 0.3z"></path><path id="Layer" class="s3" d="m10 31.1v-0.4l18.7-4.3 0.1 0.4z"></path><path id="Layer" class="s3" d="m11.3 36.6l-0.1-0.3 18.8-4.4 0.1 0.4z"></path><path id="Layer" class="s3" d="m12.6 42.1l-0.1-0.4 18.7-4.3 0.1 0.3z"></path><path id="Layer" class="s3" d="m13.8 47.5v-0.3l18.7-4.3 0.1 0.3z"></path><path id="Layer" class="s4" d="m14.5 27.6l-5.2 1.1-1.6-7 5.1-1.2z"></path><path id="Layer" class="s5" d="m51.9 16.1c4.1 5.5 3 13.2-2.4 17.4-5.5 4.1-13.2 3-17.3-2.4-4.2-5.5-3.1-13.2 2.4-17.4 5.4-4.1 13.1-3 17.3 2.4z"></path><path id="Layer" fill-rule="evenodd" class="s6" d="m49.3 33.6c-5.2 4.1-12.7 3.2-16.8-1.9-4.1-5.2-3.2-12.7 1.9-16.8 5.2-4.2 12.8-3.3 16.8 1.9 4.1 5.2 3.2 12.7-1.9 16.8zm-13.8-17.4c-4.4 3.5-5.2 9.9-1.6 14.4 3.5 4.4 9.9 5.1 14.3 1.6 4.4-3.5 5.2-9.9 1.7-14.3-3.5-4.5-10-5.2-14.4-1.7z"></path><path id="Layer" class="s6" d="m53.4 37.1l-1.7 1.3-3.7-4.7 1.7-1.3z"></path><path id="Layer" fill-rule="evenodd" class="s6" d="m67 56c-1.7 1.4-4.6 0.7-6.3-1.5l-8.5-10.7c0 0-2.7-3.4-2.8-3.6l-0.5-0.6 6.3-5 0.5 0.6q0.1 0.2 0.3 0.3l11 14c1.8 2.2 1.8 5.1 0 6.5zm-15.7-16.1c0.8 0.9 2.1 2.6 2.3 2.8l8.4 10.7c1.2 1.5 3 2 3.9 1.2h0.1c0.9-0.8 0.8-2.6-0.3-4l-10.8-13.6z"></path><path id="Layer" class="s7" d="m47.9 19.5c2.6 3.3 2.1 8.1-1.3 10.7-3.3 2.7-8.1 2.1-10.8-1.2-2.6-3.3-2-8.2 1.3-10.8 3.3-2.6 8.2-2.1 10.8 1.3z"></path><path id="Layer" class="s3" d="m38 29.9c-0.3 0.2-0.6 0.2-0.9-0.1-1.7-1.9-2.5-4-2.3-6.1 0.1-2.1 1.2-4.1 3.2-5.8 0.2-0.2 0.6-0.2 0.9 0.1 0.2 0.3 0.1 0.7-0.1 0.9-1.7 1.4-2.6 3.1-2.7 4.9-0.2 1.7 0.6 3.5 2 5.2 0.2 0.2 0.2 0.7-0.1 0.9q0 0 0 0z"></path></svg>