<svg xmlns="http://www.w3.org/2000/svg" viewBox="0 0 71 73" width="71" height="73"><title>Icon-svg</title><style>		.s0 { fill: #2d2d2d } 		.s1 { fill: #ffc000 } 		.s2 { fill: #73bfb8 } 		.s3 { fill: #e23129 } 		.s4 { fill: #f6901e } 		.s5 { fill: #ffffff } 		.s6 { fill: #f9bc1c } 	</style><path id="Layer" class="s0" d="m47.5 18.1c-0.2-6.9-4.2-12.5-9-12.5-4.9 0-8.8 5.6-9 12.5h-1.6c0.2-7.8 4.9-14.1 10.6-14.1 5.7 0 10.4 6.3 10.6 14.1z"></path><path id="Layer" class="s1" d="m59.9 29.5l-1.8 19.7h-39.4l-1.9-19.7v-11.7h43z"></path><path id="Layer" class="s2" d="m57.1 60.4h-37.5l-2.8-31.3h43.1z"></path><path id="Layer" class="s3" d="m32 35.7c0 1.6-1.3 3-3 3-1.6 0-3-1.4-3-3 0-1.7 1.4-3 3-3 1.7 0 3 1.3 3 3z"></path><path id="Layer" class="s3" d="m50.8 35.7c0 1.6-1.3 3-3 3-1.6 0-3-1.4-3-3 0-1.7 1.4-3 3-3 1.7 0 3 1.3 3 3z"></path><path id="Layer" class="s0" d="m49.1 35.9c-0.2 7.8-4.9 14.1-10.6 14.1-5.7 0-10.4-6.3-10.6-14.1h1.6c0.2 6.9 4.1 12.5 9 12.5 4.8 0 8.8-5.6 9-12.5z"></path><path id="Layer" class="s4" d="m16.8 17.8l6.4 5.4-6.4 5.9z"></path><path id="Layer" class="s4" d="m59.8 17.8l0.1 11.3-6-6z"></path><path id="Layer" class="s4" d="m62.5 70.6c-0.6 1.3-2.1 1.8-3.4 1.3l-17.4-8c-1.3-0.6-1.9-2.2-1.3-3.5l4.9-10.5c0.6-1.3 2.1-1.9 3.4-1.3l17.4 8c1.3 0.6 1.8 2.1 1.2 3.4z"></path><path id="Layer" class="s5" d="m65.6 63.7l-22-10.1 1.2-2.7 22.1 10.1z"></path><path id="Layer" class="s1" d="m28.6 68.3c0 1.9-3.8 3.4-8.4 3.4-4.6 0-8.4-1.5-8.4-3.4 0-0.8 0-1.1 0-2.3 1.6-0.8 5.8-1.1 8.4-1.1 2.5 0 6.8 0.3 8.3 0.9 0.1 1.5 0.1 1.7 0.1 2.5z"></path><path id="Layer" class="s6" d="m28.6 65.9c0 1.9-3.8 3.4-8.4 3.4-4.6 0-8.4-1.5-8.4-3.4 0-0.8 0-1.1 0-2.4 1.6-0.7 5.8-1 8.4-1 2.5 0 6.8 0.2 8.3 0.9 0.1 1.5 0.1 1.6 0.1 2.5z"></path><path id="Layer" class="s1" d="m28.6 63.5c0 1.9-3.8 3.4-8.4 3.4-4.6 0-8.4-1.5-8.4-3.4 0-0.8 0-1.2 0-2.4 1.6-0.7 5.8-1 8.4-1 2.5 0 6.8 0.2 8.3 0.9 0.1 1.5 0.1 1.6 0.1 2.5z"></path><path id="Layer" class="s6" d="m28.6 61.3c0 1.9-3.8 3.4-8.4 3.4-4.6 0-8.4-1.5-8.4-3.4 0-0.9 0-1.2 0-2.4 1.6-0.7 5.8-1 8.4-1 2.5 0 6.8 0.2 8.3 0.9 0.1 1.5 0.1 1.6 0.1 2.5z"></path><path id="Layer" class="s1" d="m28.6 59.1c0 1.8-3.8 3.4-8.4 3.4-4.6 0-8.4-1.6-8.4-3.4 0-1.9 3.8-3.4 8.4-3.4 4.6 0 8.4 1.5 8.4 3.4z"></path><path id="Layer" class="s6" d="m27.2 59c0 1.4-3.1 2.6-7 2.6-3.8 0-7-1.2-7-2.6 0-1.5 3.2-2.7 7-2.7 3.9 0 7 1.2 7 2.7z"></path><path id="Layer" class="s5" d="m59.3 65.8q-0.1 0.1-0.3 0.1 0 0-0.1 0l-13.1-6.3c-0.1 0-0.2-0.2-0.1-0.3 0.1-0.2 0.2-0.2 0.4-0.2l13.1 6.3c0.1 0.1 0.2 0.2 0.1 0.4z"></path><path id="Layer" class="s5" d="m58.1 68.1q0 0.2-0.2 0.2-0.1 0-0.1 0l-13.1-6.3c-0.1-0.1-0.2-0.2-0.1-0.4 0-0.1 0.2-0.2 0.3-0.1l13.1 6.3c0.2 0 0.2 0.2 0.1 0.3z"></path></svg>