<svg xmlns="http://www.w3.org/2000/svg" viewBox="0 0 71 73" width="71" height="73"><title>Icon-svg</title><style>		.s0 { fill: #f59121 } 		.s1 { fill: #73bfb8 } 		.s2 { fill: #e23129 } 		.s3 { fill: none;stroke: #183453;stroke-width: 1.3 } 		.s4 { fill: #ffc000 } 	</style><path id="Layer" class="s0" d="m42 52.4l-7.7 10.2c-1 1.3-2.8 1.5-4.1 0.6l-0.1-0.2c-1.3-1-1.5-2.8-0.6-4l7.8-10.2z"></path><path id="Layer" class="s1" d="m14.1 21.5c0.2 0.2 0.3 0.5 0.1 0.7-0.2 0.2-0.5 0.2-0.7 0.1l-1-0.9c-0.3-0.2-0.3-0.5-0.1-0.7 0.2-0.2 0.5-0.3 0.7-0.1z"></path><path id="Layer" class="s1" d="m10.4 31.1c0.2 0 0.5 0.2 0.5 0.5 0 0.2-0.3 0.5-0.5 0.5l-1.4-0.1c-0.3 0-0.5-0.2-0.5-0.5 0-0.2 0.3-0.5 0.5-0.5z"></path><path id="Layer" class="s1" d="m11.3 25c0.3 0.1 0.4 0.3 0.4 0.6-0.1 0.3-0.4 0.4-0.6 0.4l-1.3-0.5c-0.3-0.1-0.5-0.3-0.4-0.6 0.1-0.3 0.4-0.4 0.6-0.3z"></path><path id="Layer" class="s1" d="m11.2 36.2c0.2-0.1 0.5 0.1 0.6 0.3 0.1 0.3-0.1 0.6-0.3 0.7l-1.3 0.4c-0.3 0.1-0.5-0.1-0.6-0.3-0.1-0.3 0-0.6 0.3-0.6z"></path><path id="Layer" class="s1" d="m28.3 16.7c0 0.3-0.3 0.5-0.5 0.4-0.3 0-0.5-0.3-0.4-0.6l0.2-1.3c0.1-0.3 0.3-0.4 0.6-0.4 0.3 0.1 0.5 0.3 0.4 0.6z"></path><path id="Layer" class="s1" d="m23.1 16.6c0.1 0.3-0.1 0.5-0.4 0.6-0.3 0-0.5-0.2-0.6-0.4l-0.2-1.4c0-0.2 0.2-0.5 0.4-0.5 0.3-0.1 0.6 0.1 0.6 0.4z"></path><path id="Layer" class="s1" d="m18.2 18.3c0.1 0.2 0.1 0.5-0.2 0.6-0.2 0.2-0.5 0.1-0.7-0.1l-0.6-1.2c-0.2-0.3-0.1-0.6 0.2-0.7 0.2-0.2 0.5-0.1 0.6 0.2z"></path><path id="Layer" class="s1" d="m17.5 24.7c2.9-3.5 7.6-4.7 11.7-3.4-4.5 5.1-8.7 10.3-12.7 15.6-2.2-3.8-1.9-8.6 1-12.2z"></path><path id="Layer" class="s2" d="m29.4 52.4c1.2-1.4 3-2 4.7-1.5-1.7 2.1-3.3 4.2-4.9 6.5-0.9-1.5-0.9-3.5 0.2-5z"></path><path id="Layer" class="s3" d="m50.5 47.9l1.1 1c0.5 0.4 0.6 1.3 0.1 1.8l-2 2.4c-0.5 0.5-1.3 0.6-1.9 0.1l-0.9-0.8"></path><path id="Layer" class="s0" d="m32.7 16.1c0 0 2 11.2 7.2 15.6 2.8 2.3 2.3 1.9 2.3 1.9l-10.9 13.4c0 0-0.3-0.2-2.1-1.7-5.9-4.8-17.4-3.7-17.4-3.7z"></path><path id="Layer" class="s4" d="m48.6 38.7c3 2.5 3.4 6.9 1 9.8l-2.2 2.7c-2.4 3-6.8 3.4-9.8 1l-5.3-4.5 10.9-13.4z"></path></svg>