<?xml version="1.0" ?>
<!-- Uploaded to: SVG Repo, www.svgrepo.com, Generator: SVG Repo Mixer Tools -->
<svg width="800px" height="800px" viewBox="0 0 32 32" xmlns="http://www.w3.org/2000/svg">
<defs>
<style>.cls-1{fill:#04009a;}.cls-2{fill:#77acf1;}</style>
</defs>
<g data-name="8. Drug Mail" id="_8._Drug_Mail">
<path class="cls-1" d="M29,32H3a3,3,0,0,1-3-3V11a1,1,0,0,1,2,0V29a1,1,0,0,0,1,1H29a1,1,0,0,0,1-1V11a1,1,0,0,1,2,0V29A3,3,0,0,1,29,32Z"/>
<path class="cls-1" d="M16,22.52a3,3,0,0,1-1.77-.58L.41,11.81a1,1,0,0,1,1.18-1.62L15.41,20.33a1,1,0,0,0,1.18,0L30.41,10.19a1,1,0,0,1,1.18,1.62L17.77,21.94A3,3,0,0,1,16,22.52Z"/>
<path class="cls-1" d="M31,12a.94.94,0,0,1-.55-.17l-5-3.33a1,1,0,0,1,1.1-1.66l5,3.33A1,1,0,0,1,31,12Z"/>
<path class="cls-1" d="M1,12a1,1,0,0,1-.83-.45,1,1,0,0,1,.28-1.38l5-3.33A1,1,0,1,1,6.55,8.5l-5,3.33A.94.94,0,0,1,1,12Z"/>
<path class="cls-1" d="M5,28a1,1,0,0,1-.71-.29,1,1,0,0,1,0-1.42l4-4a1,1,0,0,1,1.42,1.42l-4,4A1,1,0,0,1,5,28Z"/>
<path class="cls-1" d="M27,28a1,1,0,0,1-.71-.29l-4-4a1,1,0,0,1,1.42-1.42l4,4a1,1,0,0,1,0,1.42A1,1,0,0,1,27,28Z"/>
<path class="cls-1" d="M26,15.66a1,1,0,0,1-1-1V3a1,1,0,0,0-1-1H8A1,1,0,0,0,7,3V14.66a1,1,0,0,1-2,0V3A3,3,0,0,1,8,0H24a3,3,0,0,1,3,3V14.66A1,1,0,0,1,26,15.66Z"/>
<path class="cls-2" d="M14.54,16A4.54,4.54,0,0,1,10,11.46a4.47,4.47,0,0,1,1.33-3.2l2.93-2.93A4.47,4.47,0,0,1,17.46,4,4.54,4.54,0,0,1,22,8.54a4.47,4.47,0,0,1-1.33,3.2l-2.93,2.93A4.47,4.47,0,0,1,14.54,16ZM17.46,6a2.52,2.52,0,0,0-1.79.74L12.74,9.67A2.54,2.54,0,0,0,14.54,14a2.56,2.56,0,0,0,1.79-.74l2.93-2.93A2.54,2.54,0,0,0,17.46,6Z"/>
<path class="cls-2" d="M18.5,13.5a1,1,0,0,1-.71-.29l-5-5a1,1,0,1,1,1.42-1.42l5,5a1,1,0,0,1,0,1.42A1,1,0,0,1,18.5,13.5Z"/>
</g>
</svg>