<svg xmlns="http://www.w3.org/2000/svg" xmlns:xlink="http://www.w3.org/1999/xlink" id="Layer_1" x="0px" y="0px" viewBox="0 0 759 783.3" style="enable-background:new 0 0 759 783.3;" xml:space="preserve"> <style type="text/css"> .st0{fill:#E2E2E2;} .st1{opacity:0.5;fill:#57B281;enable-background:new ;} .st2{opacity:0.5;fill:#545C66;enable-background:new ;} </style> <path class="st0" d="M83.7,296c-0.7-4-4.2-7-8.4-7c-4.7,0-8.5,3.8-8.5,8.5s3.8,8.5,8.5,8.5c4.2,0,7.7-3,8.4-7h24l33.9-33.9H42.4 c-0.7-4.8-4.9-8.5-9.9-8.5c-5.6,0-10.1,4.5-10.1,10.1c0,5.5,4.5,10.1,10.1,10.1c5,0,9.2-3.7,9.9-8.5h91.8l-27.9,27.9H83.7V296z M32.6,273.6c-3.9,0-7-3.2-7-7c0-3.9,3.2-7,7-7c3.9,0,7,3.2,7,7C39.6,270.5,36.4,273.6,32.6,273.6z"></path> <path class="st0" d="M708.7,224.6l-40.3,40.3v335.3l-28.2,28.2c-1.7-1.2-3.7-2-5.9-2c-5.5,0-10.1,4.5-10.1,10.1s4.5,10.1,10.1,10.1 s10.1-4.5,10.1-10.1c0-2.2-0.7-4.3-2-5.9L670,603l24.4,24.4c-1,1.4-1.5,3-1.5,4.8c0,4.7,3.8,8.5,8.5,8.5s8.5-3.8,8.5-8.5 s-3.8-8.5-8.5-8.5c-1.8,0-3.5,0.6-4.8,1.5l-25.1-25.1v-331l26.1,26.1v195.5c-4,0.7-7,4.2-7,8.4c0,4.7,3.8,8.5,8.5,8.5 s8.5-3.8,8.5-8.5c0-4.2-3-7.7-7-8.4V294l-28.5-28.5l39.7-39.7v-72.4l48.5-48.5v-4.3l-51.6,51.6L708.7,224.6L708.7,224.6z M634.2,643.6c-3.9,0-7-3.2-7-7c0-3.9,3.2-7,7-7c3.9,0,7,3.2,7,7C641.2,640.4,638.1,643.6,634.2,643.6z"></path> <path class="st0" d="M672.9,111.6H596l-76.5,76.5h-37.3l-28-28h-56.8c-0.7-4.8-4.9-8.5-9.9-8.5c-5.6,0-10.1,4.5-10.1,10.1 s4.5,10.1,10.1,10.1c5,0,9.2-3.7,9.9-8.5h55.5l24.9,24.9h-70.4h-0.6h-41.9l-27,27H56.3l-16.4,16.4c-1.4-1-3.1-1.5-4.9-1.5 c-4.7,0-8.5,3.8-8.5,8.5s3.8,8.5,8.5,8.5s8.5-3.8,8.5-8.5c0-1.8-0.6-3.5-1.5-4.9l15.5-15.5h281.6l27-27h37.6l-73.9,73.9l-26-26 h-68.1c-0.7-4-4.2-7-8.3-7c-4.7,0-8.5,3.8-8.5,8.5s3.8,8.5,8.5,8.5c4.2,0,7.6-3,8.3-7h66.8l25.1,25.1l-33.1,33.1h-65.9 c-0.7-4-4.2-7-8.3-7c-4.7,0-8.5,3.8-8.5,8.5s3.8,8.5,8.5,8.5c4.2,0,7.6-3,8.3-7h62.9l-41.3,41.3h-82.6c-0.7-4-4.2-7-8.4-7 c-4.7,0-8.5,3.8-8.5,8.5s3.8,8.5,8.5,8.5c4.2,0,7.7-3,8.4-7h79.6L224,370.8c-1.7-1.2-3.7-2-5.9-2c-5.5,0-10,4.5-10,10s4.5,10,10,10 s10-4.5,10-10c0-2.2-0.7-4.2-2-5.9l25.3-25.3l0.3-0.3l0.1-0.1l156-156h112.7l76.5-76.5h76.9l47.2-47.2h-4.3L672.9,111.6z M387.5,168.7c-3.9,0-7-3.2-7-7c0-3.9,3.2-7,7-7c3.9,0,7,3.2,7,7S391.3,168.7,387.5,168.7z M218.2,385.8c-3.8,0-7-3.1-7-7s3.1-7,7-7 s7,3.1,7,7S222,385.8,218.2,385.8z"></path> <path class="st0" d="M663.9,215l-51.3,51.3v212.5l-24.9,24.9v68.1c-4,0.7-7,4.2-7,8.3c0,4.7,3.8,8.5,8.5,8.5s8.5-3.8,8.5-8.5 c0-4.2-3-7.6-7-8.3V505l21.9-21.9v38.4v0.6v89.2l-26.2,26.2c-1.4-1-3-1.5-4.8-1.5c-4.7,0-8.5,3.8-8.5,8.5s3.8,8.5,8.5,8.5 s8.5-3.8,8.5-8.5c0-1.8-0.6-3.5-1.5-4.8l27.1-27.1v-87.4l23.7,23.7c-1,1.4-1.5,3-1.5,4.8c0,4.7,3.8,8.5,8.5,8.5s8.5-3.8,8.5-8.5 s-3.8-8.5-8.5-8.5c-1.8,0-3.5,0.6-4.8,1.5l-25.8-25.8v-40.8v-0.6V267.6l51.3-51.3v-63.1l67.8-67.8h-4.3L664,152L663.9,215L663.9,215 z"></path> <path class="st1" d="M760.2,113.8v-4.3l-10.1,10.1v99.8l-21.3,21.3c-1.4-1-3-1.5-4.8-1.5c-4.7,0-8.5,3.8-8.5,8.5s3.8,8.5,8.5,8.5 s8.5-3.8,8.5-8.5c0-1.8-0.6-3.5-1.5-4.8l19.2-19.2v60.7l-10.5,10.5v230.4l-12.1,12.1c-1.7-1.2-3.7-2-5.9-2 c-5.6,0-10.1,4.5-10.1,10.1s4.5,10.1,10.1,10.1c5.5,0,10.1-4.5,10.1-10.1c0-2.2-0.7-4.3-2-5.9l11.5-11.5l19,19v-4.3l-17.5-17.5 V296.1l8.9-8.9l8.5,8.5v-4.3l-7-7V170l7,7v-4.3l-7-7v-44.8L760.2,113.8z M721.7,552.5c-3.9,0-7-3.2-7-7c0-3.9,3.2-7,7-7 c3.9,0,7,3.2,7,7S725.5,552.5,721.7,552.5z"></path> <polyline class="st0" points="326.7,265.1 141.6,265.1 140,265.7 137.9,268.1 141.6,268.1 328.4,268.1 "></polyline> <polygon class="st0" points="731.1,88.4 760.2,88.4 760.2,85.4 732.4,85.4 "></polygon> <path class="st2" d="M760.2,79.5h-28.6h-2.8h-1.5L621.9,184.9v35.2h-49.5l-35.6,35.6h-19.4c-0.7-4-4.2-7-8.4-7 c-4.7,0-8.5,3.8-8.5,8.5s3.8,8.5,8.5,8.5c4.2,0,7.7-3,8.4-7h20.7l35.6-35.6h46.1l-59.2,59.2h-34.3L405.9,402.7 c-3.4-2.1-7.2-2.4-10.5-0.8c-3.5,1.7-5.6,5.2-5.6,9c0,2.5,0.9,4.9,2.6,7.2l0.3,0.3c3.6,2.8,8,3.4,11.6,1.6c3.5-1.7,5.6-5.2,5.6-9 c0-2.1-0.7-4.1-1.9-6.1l30.7-30.7v57.9l-33.8,33.8c-1.4-1-3-1.5-4.8-1.5c-4.7,0-8.5,3.8-8.5,8.5s3.8,8.5,8.5,8.5s8.5-3.8,8.5-8.5 c0-1.8-0.6-3.5-1.5-4.8l34.7-34.7v-62.2l85.8-85.8h32.2v47.2l-38.3,38.3H494c-0.7-4-4.2-7-8.3-7c-4.7,0-8.5,3.8-8.5,8.5 s3.8,8.5,8.5,8.5c4.2,0,7.6-3,8.3-7h28.7l37.1-37.1v67.6l-35.3,35.3h-47.7c-0.7-4-4.2-7-8.3-7c-4.7,0-8.5,3.8-8.5,8.5 s3.8,8.5,8.5,8.5c4.2,0,7.6-3,8.3-7h44.6l-30.9,30.9c-1.4-1-3.1-1.5-4.9-1.5c-4.7,0-8.5,3.8-8.5,8.5s3.8,8.5,8.5,8.5 s8.5-3.8,8.5-8.5c0-1.8-0.6-3.5-1.5-4.9l70.1-70.1V284.5l62.2-62.2v-36.1L728.5,82.6h31.6v-3.1H760.2z M403,417.2 c-2.6,1.3-5.6,0.9-8.3-1.1c-3.1-4.2-1.9-9.5,2.1-11.5c2.6-1.3,5.6-0.9,8.3,1.1C408.1,410,406.9,415.3,403,417.2z"></path> <path class="st1" d="M760.2,73.6h-31.6h-2.7h-1.6L637,161h-54.3l-91.4,91.4h-35.7l-29.3-29.3c1-1.4,1.5-3.1,1.5-4.9 c0-4.7-3.8-8.5-8.5-8.5s-8.5,3.8-8.5,8.5s3.8,8.5,8.5,8.5c1.8,0,3.5-0.6,4.9-1.5l27.1,27.1h-29.7l-51.1,51.1h-37c-0.7-4-4.2-7-8.3-7 c-4.7,0-8.5,3.8-8.5,8.5s3.8,8.5,8.5,8.5c4.2,0,7.6-3,8.3-7h33.9l-34,34l0,0l0,0l-58.3,58.3c-1.4-1-3.1-1.5-4.9-1.5 c-4.7,0-8.5,3.8-8.5,8.5s3.8,8.5,8.5,8.5s8.5-3.8,8.5-8.5c0-1.8-0.6-3.5-1.5-4.9l56.1-56.1v38.5l-19.2,19.2c-1.4-1-3-1.5-4.8-1.5 c-4.7,0-8.5,3.8-8.5,8.5s3.8,8.5,8.5,8.5s8.5-3.8,8.5-8.5c0-1.8-0.6-3.5-1.5-4.8l20.1-20.1v-42.8l54.2-54.2v73l-8,8 c-1.4-1-3-1.5-4.8-1.5c-4.7,0-8.5,3.8-8.5,8.5s3.8,8.5,8.5,8.5s8.5-3.8,8.5-8.5c0-1.8-0.6-3.5-1.5-4.8l8.9-8.9v-77.3l29.1-29.1h65.4 l-45.1,45.1c-1.4-1-3.1-1.5-4.9-1.5c-4.7,0-8.5,3.8-8.5,8.5s3.8,8.5,8.5,8.5s8.5-3.8,8.5-8.5c0-1.8-0.6-3.5-1.5-4.9l47.7-47.7 L584,164h54.3l87.4-87.4h34.6v-3H760.2z"></path> <polygon class="st0" points="716.8,70.5 760.2,70.5 760.4,67.4 718,67.4 "></polygon> </svg>